<?xml version="1.0" standalone="no"?>
<!DOCTYPE svg PUBLIC "-//W3C//DTD SVG 20010904//EN"
 "http://www.w3.org/TR/2001/REC-SVG-20010904/DTD/svg10.dtd">
<svg version="1.0" xmlns="http://www.w3.org/2000/svg"
 width="284.000000pt" height="343.000000pt" viewBox="0 0 284.000000 343.000000"
 preserveAspectRatio="xMidYMid meet">

<g transform="translate(0.000000,343.000000) scale(0.100000,-0.100000)"
fill="#000000" stroke="none">
<path d="M1260 3056 c-250 -56 -467 -208 -626 -441 -177 -259 -264 -553 -265
-890 0 -350 86 -648 264 -909 329 -480 879 -595 1314 -275 118 88 203 181 296
326 241 376 301 922 150 1373 -170 510 -553 834 -981 829 -53 -1 -122 -7 -152
-13z m172 -283 c2 -68 0 -123 -5 -123 -5 0 -7 -6 -4 -12 2 -7 10 -13 17 -13 7
0 15 -5 17 -11 2 -6 -13 -11 -37 -12 -42 -2 -49 5 -27 27 6 6 12 33 12 59 1
153 6 225 14 217 5 -6 11 -65 13 -132z m6 -225 c5 -24 13 -51 17 -60 5 -13 1
-20 -14 -26 -15 -5 -18 -11 -11 -22 8 -12 12 -12 18 -2 7 10 11 10 22 -3 10
-12 10 -19 2 -27 -17 -17 -15 -26 4 -24 9 0 19 -5 22 -13 3 -10 -1 -12 -17 -8
-11 3 -19 1 -16 -3 3 -5 1 -11 -4 -15 -5 -3 -14 3 -20 12 -9 16 -10 16 -11 1
0 -9 3 -18 8 -20 4 -1 15 -17 24 -34 13 -23 14 -34 6 -42 -9 -9 -6 -12 13 -12
18 0 29 -8 37 -24 6 -13 20 -27 31 -31 12 -3 21 -10 21 -15 0 -13 -30 -20 -31
-7 0 9 -2 9 -5 0 -3 -7 -11 -10 -19 -7 -7 3 -16 1 -20 -5 -3 -7 0 -8 9 -5 13
5 15 0 9 -27 -5 -27 -4 -31 10 -26 14 5 45 -18 36 -28 -8 -7 -74 -9 -86 -2 -6
4 -15 2 -19 -4 -4 -8 -9 -7 -15 2 -5 8 -9 10 -9 4 0 -5 4 -16 9 -23 7 -11 9
-11 14 2 4 9 13 13 22 10 8 -3 12 -10 9 -15 -3 -5 0 -9 5 -9 6 0 11 5 11 10 0
6 9 10 20 10 12 0 20 -7 20 -17 1 -17 1 -17 11 0 8 14 14 16 25 6 11 -9 14 -9
14 1 0 9 7 7 20 -5 11 -10 20 -24 20 -30 0 -7 7 -15 15 -19 8 -3 15 -13 15
-23 0 -13 2 -15 9 -5 6 10 11 10 21 -3 12 -14 12 -18 0 -25 -7 -4 -19 -6 -27
-3 -9 4 -11 0 -6 -13 5 -13 3 -16 -8 -12 -11 4 -14 -4 -14 -33 -1 -40 11 -49
33 -27 10 10 15 10 22 -2 10 -15 14 -8 11 20 -1 9 10 27 24 40 25 23 25 23 25
2 0 -11 -4 -24 -10 -27 -5 -3 -10 -15 -10 -26 0 -11 -6 -30 -12 -42 -14 -25
-37 -161 -38 -224 0 -25 -5 -43 -11 -43 -6 0 -8 7 -5 17 4 9 1 20 -6 24 -10 6
-10 22 0 79 17 99 16 108 -18 137 -16 13 -30 31 -30 39 0 12 -11 14 -52 9
-124 -13 -148 -14 -233 -6 -54 5 -91 5 -93 0 -2 -5 -10 -16 -18 -23 -11 -12
-11 -15 2 -20 8 -3 13 -10 10 -14 -3 -5 -6 -53 -7 -108 -2 -130 -23 -174 -90
-188 -31 -6 -99 11 -99 24 0 5 15 7 33 4 30 -6 31 -5 13 8 -15 12 -18 22 -13
46 6 27 3 32 -13 32 -23 0 -25 4 -34 55 l-8 40 34 -32 c18 -17 43 -41 56 -53
19 -17 21 -24 11 -36 -9 -12 -9 -20 1 -39 14 -26 32 -34 27 -12 -1 7 8 12 21
12 36 1 46 31 47 145 0 87 -3 105 -15 105 -20 0 -24 -49 -11 -135 7 -42 7 -77
2 -92 -11 -28 -17 -15 -26 62 -4 30 -9 71 -12 90 -2 19 -5 44 -7 55 -1 11 -9
31 -16 45 -18 31 -39 110 -30 110 17 0 52 -50 46 -66 -5 -12 -2 -15 9 -10 9 3
24 0 35 -6 10 -7 22 -10 25 -7 9 9 -22 72 -44 91 -26 22 -18 42 20 58 16 7 27
15 24 18 -3 3 2 14 12 24 19 21 79 26 67 6 -4 -7 2 -4 13 7 20 20 20 20 -4 23
-24 3 -24 4 -8 23 10 10 21 16 26 14 13 -9 21 15 9 30 -8 10 -8 15 1 20 8 6 8
10 -2 16 -8 5 -16 3 -21 -4 -5 -9 -10 -9 -19 0 -20 20 -4 26 67 25 67 -1 82 7
22 12 -62 6 -60 4 -48 26 6 11 21 20 33 20 12 0 29 5 37 11 12 8 11 9 -5 7
-12 -2 -20 3 -20 12 0 8 8 14 18 14 14 -2 15 1 6 12 -6 7 -8 17 -5 22 3 5 -6
14 -19 20 -24 11 -35 42 -15 42 6 0 10 -7 10 -15 0 -8 5 -15 11 -15 5 0 7 5 4
10 -3 6 1 10 9 10 9 0 16 5 16 10 0 6 -6 10 -14 10 -19 0 -28 14 -20 34 5 12
10 14 19 6 10 -8 15 -8 21 1 4 7 0 17 -8 23 -12 9 -13 20 -4 69 12 68 31 74
44 15z m-4 -758 c3 -22 9 -40 12 -40 3 0 15 11 26 26 24 30 33 26 17 -9 -10
-22 -8 -30 10 -53 25 -31 28 -90 6 -120 -8 -12 -28 -27 -45 -34 -16 -7 -30
-19 -30 -26 0 -19 -17 -18 -28 2 -5 8 -20 21 -33 27 -38 19 -61 75 -48 120 5
20 17 40 25 45 12 7 13 14 4 37 -14 37 -6 43 15 11 24 -36 31 -33 39 14 3 22
10 40 15 40 5 0 11 -18 15 -40z m191 11 c3 -5 1 -12 -5 -16 -5 -3 -10 1 -10 9
0 18 6 21 15 7z m6 -121 c2 -90 6 -113 19 -105 4 3 7 -3 6 -13 0 -10 6 -17 19
-18 36 -2 40 -4 25 -14 -13 -8 -13 -10 1 -10 21 0 41 44 27 58 -11 11 6 52 21
52 5 0 25 17 45 37 39 40 41 38 25 -19 -6 -25 -16 -38 -27 -38 -13 0 -17 -10
-18 -45 -1 -42 1 -45 20 -39 20 6 20 5 4 -12 -22 -23 -95 -23 -130 0 -37 24
-48 64 -48 169 0 113 8 111 11 -3z m-79 -204 c37 -13 100 -48 144 -80 42 -31
87 -56 100 -56 20 0 24 -5 24 -30 0 -17 -5 -30 -12 -31 -7 0 7 -8 31 -18 144
-58 202 -204 138 -345 -17 -37 -39 -65 -68 -85 -23 -17 -44 -30 -46 -28 -2 2
5 19 14 38 28 53 24 189 -6 256 -12 28 -30 58 -39 67 -16 14 -17 -2 -14 -215
3 -217 2 -230 -15 -229 -37 4 -49 -2 -98 -46 -56 -51 -116 -84 -188 -104 -67
-18 -209 -9 -269 18 -60 26 -185 140 -163 148 8 4 23 0 31 -7 15 -12 16 -10 9
19 -6 28 -2 37 28 67 44 44 88 48 113 10 15 -23 15 -27 -1 -51 -14 -22 -22
-25 -51 -19 -41 7 -46 -11 -11 -49 33 -37 88 -63 158 -76 136 -25 270 32 323
137 13 26 16 68 16 237 l0 205 28 4 c25 4 24 4 -6 6 -71 3 -142 -52 -142 -110
0 -26 9 -34 33 -30 4 0 7 -61 7 -137 0 -135 -1 -139 -29 -184 -27 -43 -67 -78
-102 -91 -15 -5 -14 0 2 44 14 37 19 76 19 153 0 83 3 105 15 110 16 6 21 36
6 36 -5 0 -14 14 -20 31 -6 17 -20 33 -31 36 -18 5 -20 11 -15 37 17 80 118
150 240 165 52 6 59 9 30 10 -34 1 -48 8 -80 42 -78 80 -190 118 -291 100 -97
-18 -178 -90 -172 -151 2 -20 8 -25 32 -25 51 0 58 -71 16 -160 -18 -38 -19
-39 -20 -12 0 44 -26 84 -83 126 -77 57 -148 142 -104 125 7 -2 37 14 67 37
160 119 311 155 452 105z m-108 -123 c-11 -22 -14 -79 -14 -268 0 -139 -5
-256 -11 -279 -6 -22 -29 -56 -54 -82 -49 -49 -71 -57 -59 -21 13 38 5 105
-16 146 -22 44 -66 81 -124 105 -60 25 -63 23 -58 -38 4 -44 0 -59 -18 -84
-12 -17 -19 -35 -16 -41 16 -25 -61 -10 -114 22 -69 41 -120 119 -120 184 0
42 1 42 24 31 20 -8 37 -7 84 8 l60 19 -5 35 c-8 50 -21 70 -44 70 -16 0 -19
-4 -14 -22 8 -25 8 -26 6 -45 -1 -18 -47 -16 -65 3 -35 34 -9 95 58 136 64 39
76 41 76 14 0 -35 33 -70 66 -71 29 0 29 -1 27 -55 -2 -30 -8 -57 -14 -59 -6
-2 15 -12 47 -23 32 -11 81 -35 110 -54 28 -19 53 -34 55 -34 2 0 4 62 5 138
1 125 3 143 25 187 21 42 87 105 110 105 4 0 1 -12 -7 -27z"/>
<path d="M1430 2390 c-13 -8 -12 -10 3 -10 9 0 17 5 17 10 0 12 -1 12 -20 0z"/>
<path d="M1433 2205 c0 -7 18 -13 49 -14 33 -1 47 2 43 9 -4 6 -17 10 -28 9
-12 0 -24 0 -27 1 -21 8 -37 6 -37 -5z"/>
<path d="M1390 2165 c-11 -13 -10 -14 4 -9 9 3 16 10 16 15 0 13 -6 11 -20 -6z"/>
<path d="M1430 2165 c-11 -13 -10 -14 4 -9 9 3 16 10 16 15 0 13 -6 11 -20 -6z"/>
<path d="M1377 2076 c-4 -10 -3 -15 3 -11 6 3 10 1 10 -5 0 -6 5 -8 10 -5 6 3
10 11 10 16 0 6 -4 8 -9 5 -5 -4 -11 -1 -13 6 -3 7 -7 5 -11 -6z"/>
<path d="M1330 2069 c0 -5 5 -7 10 -4 6 3 10 8 10 11 0 2 -4 4 -10 4 -5 0 -10
-5 -10 -11z"/>
<path d="M1340 2050 c-9 -6 -10 -10 -3 -10 6 0 15 5 18 10 8 12 4 12 -15 0z"/>
<path d="M1395 2010 c3 -5 8 -10 11 -10 2 0 4 5 4 10 0 6 -5 10 -11 10 -5 0
-7 -4 -4 -10z"/>
<path d="M1177 1973 c-11 -10 -8 -43 3 -43 5 0 7 7 3 16 -3 9 0 20 8 25 8 5 9
9 3 9 -6 0 -14 -3 -17 -7z"/>
<path d="M1404 1948 c10 -6 22 -6 26 -2 5 5 -3 10 -18 11 -22 1 -24 0 -8 -9z"/>
<path d="M1161 1654 c0 -11 3 -14 6 -6 3 7 2 16 -1 19 -3 4 -6 -2 -5 -13z"/>
<path d="M1432 1676 c2 -16 9 -31 16 -34 17 -5 15 19 -4 43 -15 19 -15 19 -12
-9z"/>
<path d="M1387 1672 c-13 -14 -15 -22 -7 -27 16 -10 33 9 28 30 -3 16 -5 15
-21 -3z"/>
<path d="M984 966 c-42 -19 -49 -33 -28 -57 27 -30 44 -24 44 16 0 22 6 38 18
44 25 15 2 13 -34 -3z"/>
<path d="M260 1546 c0 -20 -7 -24 -52 -32 -38 -6 -54 -14 -56 -26 -2 -13 3
-18 17 -18 12 0 21 5 21 10 0 6 11 10 24 10 40 0 56 11 56 37 0 13 4 21 10 18
6 -3 10 -19 10 -36 0 -16 5 -29 10 -29 12 0 13 50 2 66 -4 6 -15 13 -24 17
-14 5 -18 1 -18 -17z"/>
<path d="M2610 1540 c0 -5 12 -10 26 -10 14 0 23 -4 19 -10 -3 -5 -17 -10 -31
-10 -13 0 -24 -6 -24 -13 0 -21 11 -27 31 -17 12 7 20 7 24 0 3 -5 13 -10 22
-10 11 0 14 7 11 25 -3 14 -1 28 4 31 4 3 6 10 3 15 -8 12 -85 12 -85 -1z"/>
<path d="M220 1396 c0 -12 -6 -15 -25 -10 -21 5 -25 3 -25 -15 0 -16 6 -21 24
-21 14 0 27 4 31 10 3 5 13 6 21 3 12 -4 15 0 12 18 -3 27 -38 40 -38 15z"/>
<path d="M2585 1391 c-9 -30 4 -49 41 -53 44 -5 51 2 22 24 l-23 18 28 0 c33
0 36 15 5 24 -42 11 -67 6 -73 -13z m29 -26 c3 -8 1 -15 -4 -15 -6 0 -10 7
-10 15 0 8 2 15 4 15 2 0 6 -7 10 -15z"/>
<path d="M217 1272 c-10 -10 -17 -26 -17 -35 0 -14 6 -16 28 -11 44 11 62 23
56 39 -8 20 -24 19 -41 -2 -13 -17 -14 -16 -8 5 8 27 3 28 -18 4z"/>
<path d="M2563 1269 c-16 -16 -17 -36 -2 -44 6 -4 9 0 7 10 -2 10 2 20 9 22 8
3 11 -6 10 -24 -2 -23 2 -28 24 -31 22 -3 28 2 33 24 4 15 3 31 -1 35 -16 16
-68 21 -80 8z m72 -29 c3 -5 -1 -10 -9 -10 -9 0 -16 5 -16 10 0 6 4 10 9 10 6
0 13 -4 16 -10z"/>
<path d="M2664 1245 c-4 -9 -4 -18 -1 -21 10 -10 48 7 44 19 -6 19 -36 20 -43
2z"/>
<path d="M280 1170 c0 -6 -11 -15 -25 -20 -31 -12 -33 -30 -3 -30 20 0 20 -1
4 -19 -10 -10 -13 -22 -8 -25 15 -9 82 16 82 32 0 9 -6 12 -15 8 -13 -5 -15 0
-9 29 5 28 3 35 -10 35 -9 0 -16 -5 -16 -10z"/>
<path d="M2513 1116 l-1 -43 41 0 c43 0 57 9 57 39 0 10 -16 22 -47 32 -26 9
-47 16 -47 16 -1 0 -2 -20 -3 -44z m67 -6 c24 -15 7 -19 -25 -5 -23 10 -25 14
-10 14 11 0 27 -3 35 -9z"/>
<path d="M308 1013 c-32 -16 -35 -33 -10 -61 16 -18 20 -19 50 -6 35 15 37 20
22 58 -11 29 -22 31 -62 9z m42 -28 c0 -8 -4 -15 -9 -15 -5 0 -17 -3 -27 -7
-12 -4 -15 -2 -12 8 3 8 11 13 17 12 6 -2 11 2 11 7 0 6 5 10 10 10 6 0 10 -7
10 -15z"/>
<path d="M2464 996 c-11 -29 1 -50 35 -58 42 -11 50 -4 25 23 -18 20 -18 20 9
14 35 -9 36 12 1 25 -36 14 -64 12 -70 -4z"/>
<path d="M409 892 c12 -8 7 -15 -23 -33 -46 -27 -34 -49 13 -24 23 12 31 22
29 37 -2 12 -10 23 -18 25 -13 4 -13 3 -1 -5z"/>
<path d="M2410 878 c0 -16 67 -51 81 -43 11 7 12 35 2 36 -31 3 -50 7 -65 14
-12 5 -18 3 -18 -7z"/>
<path d="M438 769 c-26 -29 -26 -32 -12 -55 15 -22 18 -23 43 -9 33 17 59 45
42 45 -6 0 -23 -7 -36 -16 -13 -9 -30 -14 -37 -12 -7 3 2 13 20 24 18 10 31
25 30 33 -5 25 -22 21 -50 -10z"/>
<path d="M548 673 c19 -8 14 -26 -15 -49 -16 -12 -25 -25 -21 -29 9 -9 68 33
68 49 0 15 -21 36 -34 35 -6 0 -5 -3 2 -6z"/>
<path d="M2204 609 c-4 -7 6 -23 27 -40 19 -15 31 -30 28 -33 -3 -4 -17 4 -31
17 -28 26 -48 25 -48 -4 0 -12 7 -19 19 -19 10 0 24 -7 31 -15 12 -14 15 -14
31 1 22 20 24 41 6 57 -46 43 -55 48 -63 36z"/>
<path d="M636 566 c19 -14 19 -15 -3 -38 -23 -24 -30 -48 -15 -48 14 0 52 45
52 61 0 19 -20 39 -39 39 -11 0 -10 -4 5 -14z"/>
<path d="M593 553 c-18 -7 -16 -43 2 -43 8 0 15 7 15 15 0 8 7 15 16 15 8 0
12 5 9 10 -7 11 -22 12 -42 3z"/>
<path d="M2100 485 c-6 -8 -10 -20 -7 -27 4 -8 6 -7 6 5 1 24 13 21 41 -8 24
-25 40 -32 40 -16 0 11 -47 61 -58 61 -5 0 -15 -7 -22 -15z"/>
<path d="M701 455 l-25 -24 28 -26 28 -26 21 28 c35 43 39 60 14 67 -33 9 -40
7 -66 -19z m39 -25 c0 -5 -4 -10 -10 -10 -5 0 -10 5 -10 10 0 6 5 10 10 10 6
0 10 -4 10 -10z"/>
<path d="M2014 422 c-15 -10 -25 -40 -14 -47 5 -3 11 -1 15 5 9 15 25 2 25
-21 0 -14 6 -19 17 -17 25 5 27 24 4 47 -12 12 -21 26 -21 31 0 12 -11 13 -26
2z"/>
<path d="M833 393 c-3 -10 -13 -26 -20 -35 -17 -19 -8 -42 13 -34 8 3 14 -1
14 -9 0 -27 25 -16 44 20 23 42 12 60 -15 25 l-19 -25 6 31 c7 35 -12 57 -23
27z"/>
<path d="M1912 343 c2 -13 -3 -17 -17 -16 -41 5 -49 -6 -23 -30 14 -13 27 -29
30 -37 2 -8 9 -10 17 -6 7 5 10 14 7 22 -4 11 1 13 19 8 30 -7 31 1 5 44 -21
35 -43 43 -38 15z"/>
<path d="M1120 341 c-29 -8 -39 -38 -15 -47 21 -9 33 5 15 16 -12 8 -10 10 8
10 13 0 22 6 22 15 0 8 -1 15 -2 14 -2 -1 -14 -4 -28 -8z"/>
<path d="M944 294 c-13 -26 -14 -38 -5 -47 15 -15 27 0 35 46 9 48 -8 49 -30
1z"/>
<path d="M1753 280 c-26 -11 -28 -24 -10 -63 10 -23 17 -26 37 -22 38 10 43
20 30 59 -12 37 -20 41 -57 26z m31 -36 c15 -40 -3 -47 -21 -9 -9 20 -8 25 2
25 7 0 16 -7 19 -16z"/>
<path d="M1047 273 c-13 -21 -18 -73 -7 -73 6 0 13 7 16 15 9 23 26 18 19 -5
-4 -13 -2 -20 8 -20 19 0 38 65 24 79 -13 13 -54 15 -60 4z m40 -9 c-3 -3 -12
-4 -19 -1 -8 3 -5 6 6 6 11 1 17 -2 13 -5z"/>
<path d="M1180 235 c-18 -21 -3 -72 23 -79 26 -6 25 -7 37 33 13 48 -30 82
-60 46z m40 -21 c0 -12 -4 -12 -20 -2 -13 8 -16 15 -8 19 15 10 28 2 28 -17z"/>
<path d="M1635 240 c-3 -5 -12 -7 -19 -4 -21 8 -31 -17 -12 -28 13 -7 14 -13
6 -23 -18 -22 24 -40 44 -19 18 18 21 34 6 34 -5 0 -10 -5 -10 -12 0 -9 -3 -9
-11 -1 -9 9 -8 16 5 28 9 9 14 21 11 26 -8 11 -12 11 -20 -1z"/>
<path d="M1314 219 c-3 -6 -1 -16 5 -22 6 -6 11 -21 11 -34 0 -25 10 -29 28
-11 8 8 12 8 12 1 0 -6 7 -13 15 -17 12 -4 15 4 15 39 0 25 -4 45 -10 45 -5 0
-10 -7 -10 -15 0 -9 -6 -12 -15 -9 -8 4 -15 12 -15 20 0 17 -26 19 -36 3z"/>
<path d="M1482 218 c-17 -17 -15 -31 3 -25 19 8 31 -11 16 -26 -17 -17 -13
-27 9 -27 17 0 20 6 18 45 -1 47 -19 60 -46 33z"/>
<path d="M1804 188 c-8 -12 24 -40 38 -32 10 6 -9 44 -22 44 -5 0 -12 -5 -16
-12z"/>
</g>
</svg>
